<?xml version="1.0" encoding="UTF-8"?><svg id="Layer_1" xmlns="http://www.w3.org/2000/svg" viewBox="0 0 500 500"><rect y="0" width="500" height="500" fill="#000" stroke-width="0"/><path d="M421.52778,105.55556h-63.19444l31.41666,47.12499c1.98612,3.06945-.18056,7.04166-3.79165,7.04166h-36.11111c-5.95833,0-11.7361-3.06945-14.98611-8.125l-30.69446-46.04166h-36.11111l31.41666,47.12499c1.9861,3.06945-.18056,7.04166-3.79167,7.04166h-36.11111c-5.95833,0-11.7361-3.06945-14.98611-8.125l-30.69444-46.04166h-36.11111l31.41666,47.12499c1.9861,3.06945-.18056,7.04166-3.79167,7.04166h-36.11111c-5.95833,0-11.55555-3.06945-14.98611-8.125l-30.69444-46.04166h-18.05556c-19.86111,0-35.93056,16.25-35.93056,36.11111l-.18056,216.66667c0,19.86112,16.25,36.11111,36.11111,36.11111h288.88889c19.86112,0,36.11111-16.24999,36.11111-36.11111V114.58333c0-5.05556-3.97221-9.02778-9.02778-9.02778M236.45833,308.68056l-22.56944,49.65278-22.56944-49.65278-49.65278-22.56944,49.65278-22.56944,22.56944-49.65278,22.56944,49.65278,49.65278,22.56944-49.65278,22.56944ZM339.19445,248.91668l-16.97223,37.19443-16.97221-37.19443-37.19445-16.97223,37.19443-16.97221,16.97223-37.19445,16.97223,37.19443,37.19443,16.97223-37.19443,16.97223Z" fill="#fff" stroke-width="0"/></svg>